# xmcd CD database file
#
# Track frame offsets:
#	150
#	34510
#	50372
#	68312
#	88875
#	96695
#	117210
#	135110
#	149617
#	171275
#
# Disc length: 2484 seconds
#
# Revision: 1
# Processed by: cddbd v1.5.1PL0 Copyright (c) Steve Scherf et al.
# Submitted via: CDex 1.51
#
DISCID=8509b20a
DTITLE=Ambros-Tauchen-Prokopetz - Der Watzmann ruft
DYEAR=1987
DGENRE=Musical
TTITLE0=Hollaröhdulliöh (Ouverture, Prolog)
TTITLE1=Hollaröhdulliöh (Gespräch Der Knechte, 1.Teil)
TTITLE2=Hollaröhdulliöh (Das Rufen, 2.Teil)
TTITLE3=Der Berg
TTITLE4=Die Jagd
TTITLE5=Oh St. Hubertus (Gespräch Der Knechte, 2.Teil)
TTITLE6=Die Gailtalerin, 1.Teil (Szene: Die Gailtalerin)
TTITLE7=Die Gailtalerin, 2.Teil (Szene: Der Kampf)
TTITLE8=Aufi, Aufi! (Szene: Der Berg Holt Sich Den Buben)
TTITLE9=Er Fällt (Szene: Das Maß Ist Noch Nicht Voll)
EXTD=YEAR: 1987
EXTT0=
EXTT1=
EXTT2=
EXTT3=
EXTT4=
EXTT5=
EXTT6=
EXTT7=
EXTT8=
EXTT9=
PLAYORDER=
